:version 1.10
:name ASF
:units
  mass 1
  length 1
  angle deg
:documentation
  ASF file generated by Kaydara
:root
  axis xyz
  order  tx ty tz rx ry rz
  position 0 0 0
  orientation 0 0 0
:bonedata
  begin
    id 1
    name SpineDummy
    direction 0.999998 -0.00179978 1.38929e-006
    length 3.60008
    axis 0 0 0 xyz
  end
  begin
    id 2
    name Spine
    direction 0.964365 0.262802 0.0305839
    length 8.13928
    axis 1.33928 -1.75354 15.2838 xyz
    dof rx ry rz
  end
  begin
    id 3
    name Spine1
    direction 0.811168 0.572065 0.12144
    length 7.14954
    axis 2.2224 -6.9761 35.2157 xyz
    dof rx ry rz
  end
  begin
    id 4
    name Neck
    direction 0 0 0
    length 0
    axis 2.2224 -6.9761 35.2157 xyz
    dof rx ry rz
  end
  begin
    id 5
    name HeadDummy
    direction 0.810939 0.572387 0.121455
    length 3.55534
    axis 2.2224 -6.9761 35.2157 xyz
  end
  begin
    id 6
    name Head
    direction 0.998226 -0.000232542 0.0595419
    length 7.35666
    axis -3.03688 -3.41352 -0.0133467 xyz
    dof rx ry rz
  end
  begin
    id 7
    name R_ClavicleDummy
    direction 0.531669 -0.194489 -0.824319
    length 2.49392
    axis 2.2224 -6.9761 35.2157 xyz
  end
  begin
    id 8
    name R_Clavicle
    direction -0.155119 0.0480802 -0.986725
    length 4.485
    axis -54.2764 80.6538 162.779 xyz
    dof rx ry rz
  end
  begin
    id 9
    name R_UpperArm
    direction -0.955567 0.200068 -0.216484
    length 10.1122
    axis -72.9943 12.5026 168.175 xyz
    dof rx ry rz
  end
  begin
    id 10
    name R_Forearm
    direction -0.61433 0.385743 0.688332
    length 9.39148
    axis -117.015 -43.4982 147.875 xyz
    dof rx ry rz
  end
  begin
    id 11
    name R_Hand
    direction -0.699429 0.0170333 0.714499
    length 3.66324
    axis -45.0303 -36.7097 175.478 xyz
    dof rx ry rz
  end
  begin
    id 12
    name L_ClavicleDummy
    direction 0.40287 -0.36502 0.839319
    length 2.49392
    axis 2.2224 -6.9761 35.2157 xyz
  end
  begin
    id 13
    name L_Clavicle
    direction -0.231271 -0.0726419 0.970174
    length 4.485
    axis 18.4357 -75.9711 -162.563 xyz
    dof rx ry rz
  end
  begin
    id 14
    name L_UpperArm
    direction -0.917494 0.144359 0.370629
    length 10.1122
    axis 56.0417 -21.7544 171.058 xyz
    dof rx ry rz
  end
  begin
    id 15
    name L_Forearm
    direction -0.496786 0.615074 -0.612281
    length 9.39148
    axis 89.8094 37.7546 128.927 xyz
    dof rx ry rz
  end
  begin
    id 16
    name L_Hand
    direction -0.409932 0.64962 -0.640274
    length 3.66324
    axis -0.424369 32.133 128.52 xyz
    dof rx ry rz
  end
  begin
    id 17
    name L_ThighDummy
    direction -1.84081e-006 1.87549e-006 1
    length 3.13049
    axis 0 0 0 xyz
  end
  begin
    id 18
    name L_Thigh
    direction -0.947739 0.307978 0.083308
    length 17.9961
    axis 173.219 -4.77873 161.998 xyz
    dof rx ry rz
  end
  begin
    id 19
    name L_Calf
    direction -0.728814 -0.684427 0.0197583
    length 13.3367
    axis 167.331 -1.13214 -136.799 xyz
    dof rx ry rz
  end
  begin
    id 20
    name L_Foot
    direction -0.9028 0.418719 0.0981191
    length 5.8674
    axis 163.436 11.5135 -155.37 xyz
    dof rx ry rz
  end
  begin
    id 21
    name L_Toe0
    direction -0.35341 0.886259 0.299411
    length 4.75286
    axis 169.316 -17.4222 111.74 xyz
    dof rx ry rz
  end
  begin
    id 22
    name R_ThighDummy
    direction 9.32778e-007 -8.82053e-007 -1
    length 3.13049
    axis 0 0 0 xyz
  end
  begin
    id 23
    name R_Thigh
    direction -0.925064 0.37528 -0.0585023
    length 17.9961
    axis -178.698 3.35385 157.919 xyz
    dof rx ry rz
  end
  begin
    id 24
    name R_Calf
    direction -0.68969 -0.718776 -0.0876886
    length 13.3367
    axis -160.504 5.03065 -133.817 xyz
    dof rx ry rz
  end
  begin
    id 25
    name R_Foot
    direction -0.857405 0.418858 -0.299022
    length 5.8674
    axis -161.328 4.38911 -154.413 xyz
    dof rx ry rz
  end
  begin
    id 26
    name R_Toe0
    direction -0.100745 0.952789 -0.286433
    length 4.75286
    axis 171.683 16.6445 96.0359 xyz
    dof rx ry rz
  end
:hierarchy
  begin
    root SpineDummy L_ThighDummy R_ThighDummy
    SpineDummy Spine
    Spine Spine1
    Spine1 Neck
    Neck HeadDummy R_ClavicleDummy L_ClavicleDummy
    HeadDummy Head
    R_ClavicleDummy R_Clavicle
    R_Clavicle R_UpperArm
    R_UpperArm R_Forearm
    R_Forearm R_Hand
    L_ClavicleDummy L_Clavicle
    L_Clavicle L_UpperArm
    L_UpperArm L_Forearm
    L_Forearm L_Hand
    L_ThighDummy L_Thigh
    L_Thigh L_Calf
    L_Calf L_Foot
    L_Foot L_Toe0
    R_ThighDummy R_Thigh
    R_Thigh R_Calf
    R_Calf R_Foot
    R_Foot R_Toe0
  end

:SAMPLES-PER-SECOND 30
:FULLY-SPECIFIED
:DEGREES
85
root  -1.49795 29.9432 -7.56621 110.239 10.2403 98.716
Spine  1.12364 0.0557929 -0.0344973
Spine1  -0.233416 -10.0253 9.47906
Neck  3.97569e-016 0 -2.38542e-015
Head  -5.38319 0.693338 5.5093
R_Clavicle  0.503711 3.58675 2.50971
R_UpperArm  43.2799 33.8391 -6.5571
R_Forearm  49.8674 34.4762 -34.811
R_Hand  -0.800653 0.623584 -13.7726
L_Clavicle  0.0952766 9.41412 -6.08705
L_UpperArm  16.5552 -1.60856 -4.4432
L_Forearm  -10.4763 0.407999 0.454112
L_Hand  0.518057 8.78907 4.35058
L_Thigh  -0.364255 -5.66578 1.41994
L_Calf  6.91518 -0.501894 4.10582
L_Foot  5.94387 11.7138 9.91835
L_Toe0  0.505156 0.0343248 -6.1361
R_Thigh  10.0817 -10.6959 -15.5286
R_Calf  -0.754997 -6.84313 -21.8281
R_Foot  1.70019 4.40383 -5.72439
R_Toe0  -2.62253 -0.10765 -18.2508
86
root  -1.08978 30.3406 -6.4649 107.023 11.2433 98.6351
Spine  0.510344 -0.644983 -1.49102
Spine1  -0.681442 -8.36424 8.72381
Neck  3.97569e-016 0 -2.38542e-015
Head  -0.798022 0.130402 8.95352
R_Clavicle  0.700725 6.11212 3.27905
R_UpperArm  41.2228 33.7299 -18.002
R_Forearm  51.136 32.7163 -32.2847
R_Hand  -0.833098 1.14744 -14.7267
L_Clavicle  0.347384 6.75347 -6.48836
L_UpperArm  21.736 -0.859544 -10.7078
L_Forearm  -10.4834 -0.861022 -1.01137
L_Hand  0.75979 9.63212 5.95193
L_Thigh  -2.05551 -4.43281 -2.95727
L_Calf  5.36219 -0.762139 6.02115
L_Foot  6.13167 10.8039 11.4717
L_Toe0  0.506289 0.0344785 -6.14701
R_Thigh  7.82914 -12.4819 -11.607
R_Calf  0.377054 -7.30656 -23.421
R_Foot  1.72218 4.96933 -4.11305
R_Toe0  -1.78853 -0.272865 -17.3235
87
root  -0.741242 30.9008 -5.36631 103.143 11.4961 98.2854
Spine  -0.19086 -1.25928 -2.31323
Spine1  -1.16101 -6.92008 5.1473
Neck  3.97569e-016 0 -2.38542e-015
Head  4.71943 -1.24974 13.7478
R_Clavicle  0.87223 7.5498 3.88944
R_UpperArm  37.6252 30.8378 -27.8907
R_Forearm  52.1327 29.4867 -28.0517
R_Hand  -0.856746 1.8876 -15.5639
L_Clavicle  0.504422 5.21083 -6.76338
L_UpperArm  24.1121 1.46425 -13.9012
L_Forearm  -9.17208 -1.4704 -1.71517
L_Hand  1.07623 10.1419 8.0619
L_Thigh  -4.56224 -3.35569 -7.51619
L_Calf  4.10185 -1.30114 9.97462
L_Foot  6.03412 10.1658 11.8611
L_Toe0  0.502855 0.0340391 -6.11539
R_Thigh  5.01689 -13.2086 -7.06257
R_Calf  0.750128 -6.64398 -21.1936
R_Foot  1.73765 4.74676 -5.11608
R_Toe0  -1.78853 -0.273254 -17.3235
88
root  -0.417053 31.6008 -4.27079 100.046 11.3974 97.8015
Spine  -1.41036 -1.53529 -2.49269
Spine1  -2.10789 -5.19133 0.347232
Neck  3.97569e-016 0 -2.38542e-015
Head  10.1544 -2.84735 18.3651
R_Clavicle  1.00926 8.54202 4.34778
R_UpperArm  34.4964 26.4257 -35.1953
R_Forearm  50.416 25.3526 -23.2144
R_Hand  -0.838213 2.7792 -15.8396
L_Clavicle  0.595734 4.57164 -7.11938
L_UpperArm  24.7985 4.21358 -14.8564
L_Forearm  -7.57763 -1.58439 -1.84648
L_Hand  1.21298 10.1722 9.04006
L_Thigh  -7.27103 -2.53488 -11.9924
L_Calf  3.64623 -2.01872 15.209
L_Foot  5.61525 10.4102 10.2475
L_Toe0  0.372456 0.0292468 -5.05679
R_Thigh  3.12945 -13.0877 -3.6417
R_Calf  0.298838 -4.87252 -15.369
R_Foot  1.5171 3.57583 -5.98418
R_Toe0  -1.78853 -0.273758 -17.3235
89
root  -0.132736 32.2618 -3.17125 98.0705 11.047 97.4833
Spine  -2.96231 -1.68829 -2.99207
Spine1  -3.54163 -3.29379 -3.55636
Neck  3.97569e-016 0 -2.38542e-015
Head  14.597 -4.16285 22.1002
R_Clavicle  1.1046 9.5288 4.63006
R_UpperArm  31.9594 22.1822 -39.9472
R_Forearm  44.3953 20.8459 -18.4753
R_Hand  -0.763167 3.57223 -15.4111
L_Clavicle  0.67216 4.09513 -7.43711
L_UpperArm  25.3572 6.46823 -15.4358
L_Forearm  -7.65417 -0.933324 -1.09331
L_Hand  1.0377 9.70656 8.00415
L_Thigh  -9.77409 -1.98332 -15.2175
L_Calf  4.34951 -2.52214 19.0184
L_Foot  4.73463 11.118 6.64361
L_Toe0  0.247024 -0.00646061 -1.81443
R_Thigh  2.33955 -12.91 -2.06353
R_Calf  -1.65277 -2.07782 -6.52241
R_Foot  1.3664 2.9549 -5.91897
R_Toe0  -1.78853 -0.274361 -17.3235
90
root  0.115364 32.7187 -2.04966 96.5108 10.7646 97.2904
Spine  -4.40042 -1.79213 -3.9173
Spine1  -5.02856 -1.23686 -6.01466
Neck  3.97569e-016 0 -2.38542e-015
Head  18.051 -5.39088 25.0384
R_Clavicle  1.18625 10.1984 4.87599
R_UpperArm  27.9664 18.9492 -42.9905
R_Forearm  35.6306 16.0562 -13.8663
R_Hand  -0.654637 4.24604 -14.6287
L_Clavicle  0.727538 3.81338 -7.70692
L_UpperArm  25.9298 8.02128 -16.242
L_Forearm  -9.12147 0.458687 0.515291
L_Hand  0.770488 9.04804 6.25172
L_Thigh  -11.3973 -1.61904 -18.1409
L_Calf  5.42763 -2.86999 21.7822
L_Foot  3.84814 10.782 4.06537
L_Toe0  0.848787 -0.10234 0.54655
R_Thigh  2.06965 -12.8726 -2.12939
R_Calf  -4.34239 1.49332 4.53905
R_Foot  1.36463 2.64894 -6.71871
R_Toe0  -1.78853 -0.275044 -17.3234
91
root  0.368233 33.0286 -0.937522 94.9999 10.755 96.859
Spine  -5.58314 -1.67539 -5.10027
Spine1  -6.26128 1.3109 -6.96272
Neck  3.97569e-016 0 -2.38542e-015
Head  20.7846 -6.59561 27.0761
R_Clavicle  1.2337 10.7142 4.96761
R_UpperArm  21.8696 16.8717 -44.9992
R_Forearm  27.3435 11.0666 -9.38256
R_Hand  -0.485628 4.78447 -13.264
L_Clavicle  0.770102 3.79284 -8.0804
L_UpperArm  25.4874 9.10236 -16.9772
L_Forearm  -9.88321 2.29212 2.63585
L_Hand  0.614238 8.50533 5.20869
L_Thigh  -11.7699 -1.49556 -21.6966
L_Calf  5.25289 -3.35728 25.2559
L_Foot  3.41767 10.4697 2.90711
L_Toe0  0.925441 -0.147269 1.70922
R_Thigh  2.24926 -12.6669 -3.64374
R_Calf  -5.90203 5.65218 17.7159
R_Foot  1.35342 2.27039 -7.56153
R_Toe0  -1.78853 -0.27579 -17.3234
92
root  0.601496 33.2038 0.144035 94.0021 10.5716 96.3859
Spine  -6.7288 -1.78304 -7.00782
Spine1  -7.32993 4.25499 -6.43393
Neck  3.97569e-016 0 -2.38542e-015
Head  22.6628 -7.39869 28.4407
R_Clavicle  1.36707 12.0621 5.45793
R_UpperArm  15.6407 15.7387 -46.2049
R_Forearm  21.7541 6.20186 -5.20867
R_Hand  -0.254304 4.97838 -11.1627
L_Clavicle  0.865231 3.35242 -8.54516
L_UpperArm  23.9239 10.124 -17.8521
L_Forearm  -9.75376 4.59373 5.31157
L_Hand  0.522258 8.19929 4.55399
L_Thigh  -10.9998 -1.55386 -25.4836
L_Calf  3.71999 -4.26046 29.704
L_Foot  3.24341 9.84516 2.87932
L_Toe0  1.10255 -0.155007 1.16458
R_Thigh  2.85726 -12.3135 -6.11656
R_Calf  -5.40369 9.84287 32.5584
R_Foot  1.35032 2.26278 -7.54173
R_Toe0  -1.78853 -0.276581 -17.3234
93
root  0.71812 33.1203 1.20525 93.5902 10.0213 95.9979
Spine  -7.77695 -2.20053 -9.14888
Spine1  -8.27346 7.14737 -5.57141
Neck  3.97569e-016 0 -2.38542e-015
Head  23.4712 -7.98265 29.6669
R_Clavicle  1.19183 14.3863 4.52125
R_UpperArm  10.1967 15.0753 -46.6783
R_Forearm  19.2986 1.56021 -1.32291
R_Hand  -0.00311851 4.95073 -8.71741
L_Clavicle  0.981945 2.44678 -8.74092
L_UpperArm  22.5263 11.2129 -19.1995
L_Forearm  -10.5589 7.64335 8.90463
L_Hand  0.411829 8.23205 3.62789
L_Thigh  -9.66805 -1.47964 -28.4986
L_Calf  1.69801 -5.15781 33.18
L_Foot  3.67045 9.77238 4.40409
L_Toe0  0.414083 -0.0495254 0.235862
R_Thigh  3.51676 -11.4328 -7.92167
R_Calf  -3.98141 12.0931 44.4692
R_Foot  1.4793 1.89777 -9.77413
R_Toe0  -1.78853 -0.2774 -17.3234
94
root  0.67785 32.7999 2.18586 92.6661 9.89611 95.0243
Spine  -8.19195 -1.9233 -9.50263
Spine1  -8.7535 10.1255 -5.36654
Neck  3.97569e-016 0 -2.38542e-015
Head  23.7477 -9.33604 30.0931
R_Clavicle  1.15506 15.4228 4.34515
R_UpperArm  3.21064 14.5681 -46.3996
R_Forearm  18.2631 -3.05464 2.51793
R_Hand  0.207476 4.81146 -6.53153
L_Clavicle  0.893948 2.7117 -8.24052
L_UpperArm  22.0061 11.8473 -20.3233
L_Forearm  -12.0515 11.5199 13.6049
L_Hand  0.324586 8.27294 2.89781
L_Thigh  -8.96693 -0.702682 -30.3573
L_Calf  0.272491 -4.86987 33.3561
L_Foot  4.27332 8.71005 7.57716
L_Toe0  -0.145618 0.0232134 -0.624972
R_Thigh  2.2819 -9.21798 -7.22809
R_Calf  -3.79043 11.4138 46.1163
R_Foot  1.943 1.61146 -15.2682
R_Toe0  -1.78853 -0.27823 -17.3233
95
root  0.499548 32.3211 3.06837 90.509 10.7651 93.8086
Spine  -7.73992 -1.32379 -7.48677
Spine1  -8.36767 13.3172 -4.65104
Neck  3.97569e-016 0 -2.38542e-015
Head  24.4706 -11.7811 28.1739
R_Clavicle  1.2921 12.969 5.35767
R_UpperArm  -6.46924 14.2379 -44.4776
R_Forearm  16.8764 -7.68068 6.41373
R_Hand  0.245857 4.61803 -5.89396
L_Clavicle  0.519094 5.29691 -7.03352
L_UpperArm  21.2114 11.5152 -19.9074
L_Forearm  -11.5242 15.9557 19.2728
L_Hand  0.260652 7.28131 2.52058
L_Thigh  -7.92653 0.0485675 -30.9791
L_Calf  -2.22224 -3.75464 28.6892
L_Foot  4.17302 5.54043 10.9684
L_Toe0  0.120192 -0.0221678 -0.0384663
R_Thigh  -4.09865 -6.40494 -5.37599
R_Calf  -2.46936 10.7181 38.7947
R_Foot  2.09168 1.15278 -17.5899
R_Toe0  -1.78853 -0.279053 -17.3233
96
root  0.193369 31.744 3.94593 88.2293 11.942 93.498
Spine  -6.98563 -1.46596 -5.25014
Spine1  -7.25699 15.422 -1.78054
Neck  3.97569e-016 0 -2.38542e-015
Head  25.5335 -13.9304 24.0968
R_Clavicle  0.393724 7.87459 1.86474
R_UpperArm  -13.5566 13.857 -38.9736
R_Forearm  16.4775 -11.7805 9.96239
R_Hand  0.137462 5.4293 -7.95697
L_Clavicle  0.143842 8.59928 -5.7747
L_UpperArm  18.1796 10.6053 -17.3221
L_Forearm  -8.834 20.2893 25.2727
L_Hand  0.10049 4.61907 1.353
L_Thigh  -6.56745 0.199251 -29.3396
L_Calf  -4.78274 -2.50467 18.3518
L_Foot  2.67862 0.828687 11.3113
L_Toe0  0.799902 -0.263172 5.10062
R_Thigh  -6.6393 -4.69402 -3.20115
R_Calf  -4.54129 8.78867 28.3959
R_Foot  1.48813 0.598965 -12.2818
R_Toe0  -1.78853 -0.279852 -17.3233
97
root  -0.207065 31.2418 4.82198 87.4711 12.5664 93.326
Spine  -6.58807 -0.504746 -4.10968
Spine1  -6.20985 14.8288 2.19796
Neck  3.97569e-016 0 -2.38542e-015
Head  25.629 -14.212 20.1102
R_Clavicle  0.0399774 2.4561 0.400801
R_UpperArm  -10.7981 12.6224 -29.323
R_Forearm  19.2673 -13.8514 11.8075
R_Hand  -0.194639 7.3871 -12.3456
L_Clavicle  -0.00331228 10.1059 -5.2706
L_UpperArm  12.2573 9.87542 -12.4924
L_Forearm  -7.65584 23.4716 30.1011
L_Hand  -0.0924572 1.58 -1.3768
L_Thigh  -5.8357 1.03221 -24.7603
L_Calf  -5.40867 -0.680719 4.72849
L_Foot  0.918779 -0.537471 5.6142
L_Toe0  -1.82758 0.468876 14.0803
R_Thigh  -5.76344 -3.85895 -2.08995
R_Calf  -5.7885 6.74553 21.5346
R_Foot  1.1656 1.71657 -6.86989
R_Toe0  -1.78853 -0.280608 -17.3233
98
root  -0.686623 30.7453 5.67319 88.0664 12.9525 92.146
Spine  -6.32431 2.70215 -2.95365
Spine1  -5.64437 11.962 5.13594
Neck  3.97569e-016 0 -2.38542e-015
Head  24.5871 -12.9321 17.1586
R_Clavicle  -0.0930976 -1.23515 -0.625322
R_UpperArm  -0.5083 10.3165 -17.968
R_Forearm  24.8433 -11.8374 10.0118
R_Hand  -0.748045 7.88376 -16.8714
L_Clavicle  -0.00910592 10.1372 -5.22065
L_UpperArm  4.47732 8.96519 -5.0727
L_Forearm  -9.73078 24.2258 31.3122
L_Hand  -0.246216 0.860876 -4.41651
L_Thigh  -4.57772 3.07001 -18.3404
L_Calf  -6.8413 1.20462 -9.16379
L_Foot  0.758369 6.33272 -3.06417
L_Toe0  -10.7423 3.55549 14.7705
R_Thigh  -3.31765 -2.45108 -1.79926
R_Calf  -5.72034 5.12603 16.2544
R_Foot  0.911971 2.36236 -2.49542
R_Toe0  -1.78853 -0.281306 -17.3232
